<svg width="132" height="28" viewBox="0 0 132 28" fill="none" xmlns="http://www.w3.org/2000/svg">
<mask id="path-1-inside-1_486_1815" fill="white">
<path d="M0 0H132V28H0V0Z"/>
</mask>
<path d="M132 27H0V29H132V27Z" fill="#141718" mask="url(#path-1-inside-1_486_1815)"/>
<path d="M1.27841 8.36364H3.40909L7.11364 17.4091H7.25L10.9545 8.36364H13.0852V20H11.4148V11.5795H11.3068L7.875 19.983H6.48864L3.05682 11.5739H2.94886V20H1.27841V8.36364ZM18.7776 20.1761C17.9594 20.1761 17.2454 19.9886 16.6355 19.6136C16.0257 19.2386 15.5522 18.714 15.2151 18.0398C14.8779 17.3655 14.7094 16.5777 14.7094 15.6761C14.7094 14.7708 14.8779 13.9792 15.2151 13.3011C15.5522 12.6231 16.0257 12.0966 16.6355 11.7216C17.2454 11.3466 17.9594 11.1591 18.7776 11.1591C19.5957 11.1591 20.3098 11.3466 20.9196 11.7216C21.5295 12.0966 22.0029 12.6231 22.3401 13.3011C22.6772 13.9792 22.8457 14.7708 22.8457 15.6761C22.8457 16.5777 22.6772 17.3655 22.3401 18.0398C22.0029 18.714 21.5295 19.2386 20.9196 19.6136C20.3098 19.9886 19.5957 20.1761 18.7776 20.1761ZM18.7832 18.75C19.3135 18.75 19.7529 18.6098 20.1014 18.3295C20.4499 18.0492 20.7075 17.6761 20.8741 17.2102C21.0446 16.7443 21.1298 16.2311 21.1298 15.6705C21.1298 15.1136 21.0446 14.6023 20.8741 14.1364C20.7075 13.6667 20.4499 13.2898 20.1014 13.0057C19.7529 12.7216 19.3135 12.5795 18.7832 12.5795C18.2491 12.5795 17.806 12.7216 17.4537 13.0057C17.1052 13.2898 16.8457 13.6667 16.6753 14.1364C16.5086 14.6023 16.4253 15.1136 16.4253 15.6705C16.4253 16.2311 16.5086 16.7443 16.6753 17.2102C16.8457 17.6761 17.1052 18.0492 17.4537 18.3295C17.806 18.6098 18.2491 18.75 18.7832 18.75ZM24.342 20V11.2727H25.9841V12.6591H26.075C26.2341 12.1894 26.5144 11.8201 26.9159 11.5511C27.3212 11.2784 27.7795 11.142 28.2909 11.142C28.397 11.142 28.522 11.1458 28.6659 11.1534C28.8136 11.161 28.9292 11.1705 29.0125 11.1818V12.8068C28.9443 12.7879 28.8231 12.767 28.6489 12.7443C28.4746 12.7178 28.3004 12.7045 28.1261 12.7045C27.7246 12.7045 27.3667 12.7898 27.0523 12.9602C26.7417 13.1269 26.4955 13.3598 26.3136 13.6591C26.1318 13.9545 26.0409 14.2917 26.0409 14.6705V20H24.342ZM33.5315 20.1761C32.6717 20.1761 31.9312 19.9924 31.3099 19.625C30.6925 19.2538 30.2152 18.733 29.8781 18.0625C29.5448 17.3883 29.3781 16.5985 29.3781 15.6932C29.3781 14.7992 29.5448 14.0114 29.8781 13.3295C30.2152 12.6477 30.6849 12.1155 31.2872 11.733C31.8933 11.3504 32.6016 11.1591 33.4122 11.1591C33.9046 11.1591 34.3819 11.2405 34.844 11.4034C35.3062 11.5663 35.7209 11.822 36.0884 12.1705C36.4558 12.5189 36.7455 12.9716 36.9577 13.5284C37.1698 14.0814 37.2759 14.7538 37.2759 15.5455V16.1477H30.3384V14.875H35.6111C35.6111 14.428 35.5202 14.0322 35.3384 13.6875C35.1565 13.339 34.9009 13.0644 34.5713 12.8636C34.2455 12.6629 33.863 12.5625 33.4236 12.5625C32.9463 12.5625 32.5296 12.6799 32.1736 12.9148C31.8213 13.1458 31.5486 13.4489 31.3554 13.8239C31.166 14.1951 31.0713 14.5985 31.0713 15.0341V16.0284C31.0713 16.6117 31.1736 17.108 31.3781 17.517C31.5865 17.9261 31.8762 18.2386 32.2474 18.4545C32.6187 18.6667 33.0524 18.7727 33.5486 18.7727C33.8705 18.7727 34.1641 18.7273 34.4293 18.6364C34.6944 18.5417 34.9236 18.4015 35.1168 18.2159C35.3099 18.0303 35.4577 17.8011 35.5599 17.5284L37.1679 17.8182C37.0391 18.2917 36.808 18.7064 36.4747 19.0625C36.1452 19.4148 35.7304 19.6894 35.2304 19.8864C34.7342 20.0795 34.1679 20.1761 33.5315 20.1761ZM42.7315 20V8.36364H46.8793C47.7846 8.36364 48.5346 8.52841 49.1293 8.85795C49.724 9.1875 50.169 9.63826 50.4645 10.2102C50.7599 10.7784 50.9077 11.4186 50.9077 12.1307C50.9077 12.8466 50.758 13.4905 50.4588 14.0625C50.1634 14.6307 49.7164 15.0814 49.1179 15.4148C48.5232 15.7443 47.7751 15.9091 46.8736 15.9091H44.0213V14.4205H46.7145C47.2865 14.4205 47.7505 14.322 48.1065 14.125C48.4626 13.9242 48.724 13.6515 48.8906 13.3068C49.0573 12.9621 49.1406 12.5701 49.1406 12.1307C49.1406 11.6913 49.0573 11.3011 48.8906 10.9602C48.724 10.6193 48.4607 10.3523 48.1009 10.1591C47.7448 9.96591 47.2751 9.86932 46.6918 9.86932H44.4872V20H42.7315ZM52.4295 20V11.2727H54.0716V12.6591H54.1625C54.3216 12.1894 54.6019 11.8201 55.0034 11.5511C55.4087 11.2784 55.867 11.142 56.3784 11.142C56.4845 11.142 56.6095 11.1458 56.7534 11.1534C56.9011 11.161 57.0167 11.1705 57.1 11.1818V12.8068C57.0318 12.7879 56.9106 12.767 56.7364 12.7443C56.5621 12.7178 56.3879 12.7045 56.2136 12.7045C55.8121 12.7045 55.4542 12.7898 55.1398 12.9602C54.8292 13.1269 54.583 13.3598 54.4011 13.6591C54.2193 13.9545 54.1284 14.2917 54.1284 14.6705V20H52.4295ZM61.5338 20.1761C60.7156 20.1761 60.0016 19.9886 59.3918 19.6136C58.7819 19.2386 58.3084 18.714 57.9713 18.0398C57.6342 17.3655 57.4656 16.5777 57.4656 15.6761C57.4656 14.7708 57.6342 13.9792 57.9713 13.3011C58.3084 12.6231 58.7819 12.0966 59.3918 11.7216C60.0016 11.3466 60.7156 11.1591 61.5338 11.1591C62.352 11.1591 63.066 11.3466 63.6759 11.7216C64.2857 12.0966 64.7592 12.6231 65.0963 13.3011C65.4334 13.9792 65.602 14.7708 65.602 15.6761C65.602 16.5777 65.4334 17.3655 65.0963 18.0398C64.7592 18.714 64.2857 19.2386 63.6759 19.6136C63.066 19.9886 62.352 20.1761 61.5338 20.1761ZM61.5395 18.75C62.0698 18.75 62.5092 18.6098 62.8577 18.3295C63.2062 18.0492 63.4637 17.6761 63.6304 17.2102C63.8009 16.7443 63.8861 16.2311 63.8861 15.6705C63.8861 15.1136 63.8009 14.6023 63.6304 14.1364C63.4637 13.6667 63.2062 13.2898 62.8577 13.0057C62.5092 12.7216 62.0698 12.5795 61.5395 12.5795C61.0054 12.5795 60.5622 12.7216 60.2099 13.0057C59.8615 13.2898 59.602 13.6667 59.4315 14.1364C59.2649 14.6023 59.1815 15.1136 59.1815 15.6705C59.1815 16.2311 59.2649 16.7443 59.4315 17.2102C59.602 17.6761 59.8615 18.0492 60.2099 18.3295C60.5622 18.6098 61.0054 18.75 61.5395 18.75ZM70.3653 20.1705C69.6608 20.1705 69.032 19.9905 68.479 19.6307C67.9297 19.267 67.4979 18.75 67.1835 18.0795C66.8729 17.4053 66.7176 16.5966 66.7176 15.6534C66.7176 14.7102 66.8748 13.9034 67.1892 13.233C67.5074 12.5625 67.943 12.0492 68.496 11.6932C69.0491 11.3371 69.676 11.1591 70.3767 11.1591C70.9184 11.1591 71.354 11.25 71.6835 11.4318C72.0169 11.6098 72.2744 11.8182 72.4563 12.0568C72.6419 12.2955 72.7858 12.5057 72.8881 12.6875H72.9903V8.36364H74.6892V20H73.0301V18.642H72.8881C72.7858 18.8277 72.6381 19.0398 72.4449 19.2784C72.2555 19.517 71.9941 19.7254 71.6608 19.9034C71.3275 20.0814 70.8956 20.1705 70.3653 20.1705ZM70.7403 18.7216C71.229 18.7216 71.6419 18.5928 71.979 18.3352C72.3199 18.0739 72.5775 17.7121 72.7517 17.25C72.9297 16.7879 73.0188 16.25 73.0188 15.6364C73.0188 15.0303 72.9316 14.5 72.7574 14.0455C72.5831 13.5909 72.3275 13.2367 71.9903 12.983C71.6532 12.7292 71.2366 12.6023 70.7403 12.6023C70.229 12.6023 69.8028 12.7348 69.4619 13C69.121 13.2652 68.8635 13.6269 68.6892 14.0852C68.5188 14.5436 68.4335 15.0606 68.4335 15.6364C68.4335 16.2197 68.5206 16.7443 68.6949 17.2102C68.8691 17.6761 69.1267 18.0455 69.4676 18.3182C69.8123 18.5871 70.2366 18.7216 70.7403 18.7216ZM82.2423 16.3807V11.2727H83.9469V20H82.2764V18.4886H82.1855C81.9848 18.9545 81.6628 19.3428 81.2196 19.6534C80.7802 19.9602 80.2329 20.1136 79.5776 20.1136C79.017 20.1136 78.5207 19.9905 78.0889 19.7443C77.6609 19.4943 77.3238 19.125 77.0776 18.6364C76.8351 18.1477 76.7139 17.5436 76.7139 16.8239V11.2727H78.4128V16.6193C78.4128 17.214 78.5776 17.6875 78.9071 18.0398C79.2366 18.392 79.6647 18.5682 80.1912 18.5682C80.5094 18.5682 80.8257 18.4886 81.1401 18.3295C81.4582 18.1705 81.7215 17.9299 81.9298 17.608C82.142 17.286 82.2461 16.8769 82.2423 16.3807ZM89.5057 20.1761C88.661 20.1761 87.9337 19.9848 87.3239 19.6023C86.7178 19.2159 86.2519 18.6837 85.9261 18.0057C85.6004 17.3277 85.4375 16.5511 85.4375 15.6761C85.4375 14.7898 85.6042 14.0076 85.9375 13.3295C86.2708 12.6477 86.7405 12.1155 87.3466 11.733C87.9527 11.3504 88.6667 11.1591 89.4886 11.1591C90.1515 11.1591 90.7424 11.2822 91.2614 11.5284C91.7803 11.7708 92.1989 12.1117 92.517 12.5511C92.839 12.9905 93.0303 13.5038 93.0909 14.0909H91.4375C91.3466 13.6818 91.1383 13.3295 90.8125 13.0341C90.4905 12.7386 90.0587 12.5909 89.517 12.5909C89.0436 12.5909 88.6288 12.7159 88.2727 12.9659C87.9205 13.2121 87.6458 13.5644 87.4489 14.0227C87.2519 14.4773 87.1534 15.0152 87.1534 15.6364C87.1534 16.2727 87.25 16.822 87.4432 17.2841C87.6364 17.7462 87.9091 18.1042 88.2614 18.358C88.6174 18.6117 89.036 18.7386 89.517 18.7386C89.839 18.7386 90.1307 18.6799 90.392 18.5625C90.6572 18.4413 90.8788 18.2689 91.0568 18.0455C91.2386 17.822 91.3655 17.553 91.4375 17.2386H93.0909C93.0303 17.803 92.8466 18.3068 92.5398 18.75C92.233 19.1932 91.822 19.5417 91.3068 19.7955C90.7955 20.0492 90.1951 20.1761 89.5057 20.1761ZM98.5815 11.2727V12.6364H93.8145V11.2727H98.5815ZM95.0929 9.18182H96.7918V17.4375C96.7918 17.767 96.841 18.0152 96.9395 18.1818C97.038 18.3447 97.1649 18.4564 97.3202 18.517C97.4793 18.5739 97.6516 18.6023 97.8372 18.6023C97.9736 18.6023 98.0929 18.5928 98.1952 18.5739C98.2974 18.5549 98.377 18.5398 98.4338 18.5284L98.7406 19.9318C98.6421 19.9697 98.502 20.0076 98.3202 20.0455C98.1384 20.0871 97.9111 20.1098 97.6384 20.1136C97.1914 20.1212 96.7747 20.0417 96.3884 19.875C96.002 19.7083 95.6895 19.4508 95.4509 19.1023C95.2122 18.7538 95.0929 18.3163 95.0929 17.7898V9.18182ZM106.46 13.4034L104.92 13.6761C104.856 13.4792 104.754 13.2917 104.613 13.1136C104.477 12.9356 104.291 12.7898 104.057 12.6761C103.822 12.5625 103.528 12.5057 103.176 12.5057C102.695 12.5057 102.293 12.6136 101.971 12.8295C101.649 13.0417 101.488 13.3163 101.488 13.6534C101.488 13.9451 101.596 14.1799 101.812 14.358C102.028 14.536 102.377 14.6818 102.858 14.7955L104.244 15.1136C105.047 15.2992 105.646 15.5852 106.039 15.9716C106.433 16.358 106.63 16.8598 106.63 17.4773C106.63 18 106.479 18.4659 106.176 18.875C105.877 19.2803 105.458 19.5985 104.92 19.8295C104.386 20.0606 103.767 20.1761 103.062 20.1761C102.085 20.1761 101.288 19.9678 100.67 19.5511C100.053 19.1307 99.674 18.5341 99.5338 17.7614L101.176 17.5114C101.278 17.9394 101.488 18.2633 101.807 18.483C102.125 18.6989 102.539 18.8068 103.051 18.8068C103.608 18.8068 104.053 18.6913 104.386 18.4602C104.719 18.2254 104.886 17.9394 104.886 17.6023C104.886 17.3295 104.784 17.1004 104.579 16.9148C104.379 16.7292 104.07 16.589 103.653 16.4943L102.176 16.1705C101.361 15.9848 100.759 15.6894 100.369 15.2841C99.9827 14.8788 99.7895 14.3655 99.7895 13.7443C99.7895 13.2292 99.9334 12.7784 100.221 12.392C100.509 12.0057 100.907 11.7045 101.414 11.4886C101.922 11.2689 102.504 11.1591 103.159 11.1591C104.102 11.1591 104.844 11.3636 105.386 11.7727C105.928 12.178 106.286 12.7216 106.46 13.4034Z" fill="#141718"/>
<path d="M116.167 14H127.833" stroke="#141718" stroke-width="1.25" stroke-linecap="round" stroke-linejoin="round"/>
<path d="M122.833 19L127.833 14" stroke="#141718" stroke-width="1.25" stroke-linecap="round" stroke-linejoin="round"/>
<path d="M122.833 9L127.833 14" stroke="#141718" stroke-width="1.25" stroke-linecap="round" stroke-linejoin="round"/>
</svg>
