<svg width="38" height="24" viewBox="0 0 38 24" fill="none" xmlns="http://www.w3.org/2000/svg">
<path d="M1.022 17V7.2H2.534V11.4H6.65V7.2H8.162V17H6.65V12.772H2.534V17H1.022ZM13.4855 17.196C12.7948 17.196 12.1788 17.056 11.6375 16.776C11.1055 16.4867 10.6855 16.076 10.3775 15.544C10.0695 15.012 9.9155 14.382 9.9155 13.654V13.444C9.9155 12.716 10.0695 12.0907 10.3775 11.568C10.6855 11.036 11.1055 10.6253 11.6375 10.336C12.1788 10.0467 12.7948 9.902 13.4855 9.902C14.1762 9.902 14.7922 10.0467 15.3335 10.336C15.8748 10.6253 16.2995 11.036 16.6075 11.568C16.9155 12.0907 17.0695 12.716 17.0695 13.444V13.654C17.0695 14.382 16.9155 15.012 16.6075 15.544C16.2995 16.076 15.8748 16.4867 15.3335 16.776C14.7922 17.056 14.1762 17.196 13.4855 17.196ZM13.4855 15.908C14.1202 15.908 14.6335 15.7073 15.0255 15.306C15.4268 14.8953 15.6275 14.3307 15.6275 13.612V13.486C15.6275 12.7673 15.4315 12.2073 15.0395 11.806C14.6475 11.3953 14.1295 11.19 13.4855 11.19C12.8602 11.19 12.3468 11.3953 11.9455 11.806C11.5535 12.2073 11.3575 12.7673 11.3575 13.486V13.612C11.3575 14.3307 11.5535 14.8953 11.9455 15.306C12.3468 15.7073 12.8602 15.908 13.4855 15.908ZM18.8648 17V10.098H20.2788V10.91H20.5028C20.6334 10.6673 20.8434 10.4527 21.1328 10.266C21.4221 10.0793 21.8141 9.986 22.3088 9.986C22.8221 9.986 23.2328 10.0933 23.5408 10.308C23.8581 10.5133 24.0961 10.7793 24.2548 11.106H24.4788C24.6374 10.7887 24.8661 10.5227 25.1648 10.308C25.4728 10.0933 25.9068 9.986 26.4668 9.986C26.9148 9.986 27.3114 10.0793 27.6568 10.266C28.0021 10.4433 28.2774 10.714 28.4828 11.078C28.6881 11.4327 28.7908 11.876 28.7908 12.408V17H27.3488V12.52C27.3488 12.1 27.2321 11.778 26.9988 11.554C26.7748 11.3207 26.4528 11.204 26.0328 11.204C25.5848 11.204 25.2254 11.3487 24.9548 11.638C24.6841 11.9273 24.5488 12.3427 24.5488 12.884V17H23.1068V12.52C23.1068 12.1 22.9901 11.778 22.7568 11.554C22.5328 11.3207 22.2108 11.204 21.7908 11.204C21.3428 11.204 20.9834 11.3487 20.7128 11.638C20.4421 11.9273 20.3068 12.3427 20.3068 12.884V17H18.8648ZM34.0327 17.196C33.3327 17.196 32.7214 17.0513 32.1987 16.762C31.676 16.4633 31.2654 16.048 30.9667 15.516C30.6774 14.9747 30.5327 14.3493 30.5327 13.64V13.472C30.5327 12.7533 30.6774 12.128 30.9667 11.596C31.256 11.0547 31.6574 10.6393 32.1707 10.35C32.6934 10.0513 33.2954 9.902 33.9767 9.902C34.6394 9.902 35.218 10.0513 35.7127 10.35C36.2167 10.6393 36.6087 11.0453 36.8887 11.568C37.1687 12.0907 37.3087 12.702 37.3087 13.402V13.948H32.0027C32.0214 14.5547 32.222 15.04 32.6047 15.404C32.9967 15.7587 33.482 15.936 34.0607 15.936C34.602 15.936 35.008 15.8147 35.2787 15.572C35.5587 15.3293 35.7734 15.0493 35.9227 14.732L37.1127 15.348C36.982 15.6093 36.7907 15.8847 36.5387 16.174C36.296 16.4633 35.974 16.706 35.5727 16.902C35.1714 17.098 34.658 17.196 34.0327 17.196ZM32.0167 12.842H35.8387C35.8014 12.3193 35.6147 11.9133 35.2787 11.624C34.9427 11.3253 34.504 11.176 33.9627 11.176C33.4214 11.176 32.978 11.3253 32.6327 11.624C32.2967 11.9133 32.0914 12.3193 32.0167 12.842Z" fill="black"/>
</svg>
