<svg width="57" height="24" viewBox="0 0 57 24" fill="none" xmlns="http://www.w3.org/2000/svg">
<path d="M3.75 12H14.25" stroke="#060606" stroke-width="1.125" stroke-linecap="round" stroke-linejoin="round"/>
<path d="M9.75 16.5L14.25 12" stroke="#060606" stroke-width="1.125" stroke-linecap="round" stroke-linejoin="round"/>
<path d="M9.75 7.5L14.25 12" stroke="#060606" stroke-width="1.125" stroke-linecap="round" stroke-linejoin="round"/>
<path d="M26.354 17.196C25.6167 17.196 24.9633 17.0653 24.394 16.804C23.8247 16.5427 23.3767 16.16 23.05 15.656C22.7327 15.1427 22.574 14.522 22.574 13.794V13.444H24.072V13.794C24.072 14.4847 24.2773 15.0027 24.688 15.348C25.108 15.6933 25.6633 15.866 26.354 15.866C27.054 15.866 27.5813 15.7213 27.936 15.432C28.2907 15.1333 28.468 14.7507 28.468 14.284C28.468 13.976 28.384 13.724 28.216 13.528C28.048 13.332 27.81 13.178 27.502 13.066C27.194 12.9447 26.8253 12.8327 26.396 12.73L25.878 12.604C25.2527 12.4547 24.7067 12.2727 24.24 12.058C23.7827 11.834 23.428 11.54 23.176 11.176C22.924 10.812 22.798 10.3453 22.798 9.776C22.798 9.19733 22.938 8.70267 23.218 8.292C23.5073 7.88133 23.904 7.564 24.408 7.34C24.912 7.116 25.5047 7.004 26.186 7.004C26.8673 7.004 27.474 7.12067 28.006 7.354C28.5473 7.58733 28.972 7.93267 29.28 8.39C29.588 8.84733 29.742 9.42133 29.742 10.112V10.616H28.244V10.112C28.244 9.692 28.1553 9.35133 27.978 9.09C27.81 8.82867 27.572 8.63733 27.264 8.516C26.956 8.39467 26.5967 8.334 26.186 8.334C25.5887 8.334 25.122 8.46 24.786 8.712C24.4593 8.95467 24.296 9.29533 24.296 9.734C24.296 10.0327 24.366 10.28 24.506 10.476C24.6553 10.6627 24.87 10.8167 25.15 10.938C25.43 11.0593 25.78 11.1667 26.2 11.26L26.718 11.386C27.3527 11.526 27.9127 11.708 28.398 11.932C28.8833 12.1467 29.266 12.4407 29.546 12.814C29.826 13.1873 29.966 13.668 29.966 14.256C29.966 14.844 29.8167 15.3573 29.518 15.796C29.2287 16.2347 28.8133 16.58 28.272 16.832C27.7307 17.0747 27.0913 17.196 26.354 17.196ZM31.5953 17V7.2H33.0373V11.078H33.2613C33.3546 10.9007 33.4853 10.728 33.6533 10.56C33.8306 10.392 34.0593 10.2567 34.3393 10.154C34.6286 10.042 34.9926 9.986 35.4313 9.986C35.9539 9.986 36.4159 10.1027 36.8173 10.336C37.2279 10.5693 37.5499 10.9007 37.7833 11.33C38.0166 11.75 38.1333 12.2587 38.1333 12.856V17H36.6913V12.968C36.6913 12.3707 36.5419 11.932 36.2433 11.652C35.9446 11.3627 35.5339 11.218 35.0113 11.218C34.4139 11.218 33.9333 11.414 33.5693 11.806C33.2146 12.198 33.0373 12.7673 33.0373 13.514V17H31.5953ZM43.4425 17.196C42.7519 17.196 42.1359 17.056 41.5945 16.776C41.0625 16.4867 40.6425 16.076 40.3345 15.544C40.0265 15.012 39.8725 14.382 39.8725 13.654V13.444C39.8725 12.716 40.0265 12.0907 40.3345 11.568C40.6425 11.036 41.0625 10.6253 41.5945 10.336C42.1359 10.0467 42.7519 9.902 43.4425 9.902C44.1332 9.902 44.7492 10.0467 45.2905 10.336C45.8319 10.6253 46.2565 11.036 46.5645 11.568C46.8725 12.0907 47.0265 12.716 47.0265 13.444V13.654C47.0265 14.382 46.8725 15.012 46.5645 15.544C46.2565 16.076 45.8319 16.4867 45.2905 16.776C44.7492 17.056 44.1332 17.196 43.4425 17.196ZM43.4425 15.908C44.0772 15.908 44.5905 15.7073 44.9825 15.306C45.3839 14.8953 45.5845 14.3307 45.5845 13.612V13.486C45.5845 12.7673 45.3885 12.2073 44.9965 11.806C44.6045 11.3953 44.0865 11.19 43.4425 11.19C42.8172 11.19 42.3039 11.3953 41.9025 11.806C41.5105 12.2073 41.3145 12.7673 41.3145 13.486V13.612C41.3145 14.3307 41.5105 14.8953 41.9025 15.306C42.3039 15.7073 42.8172 15.908 43.4425 15.908ZM48.8218 19.8V10.098H50.2358V11.092H50.4598C50.6371 10.784 50.9031 10.5087 51.2578 10.266C51.6218 10.0233 52.1398 9.902 52.8118 9.902C53.3905 9.902 53.9178 10.042 54.3938 10.322C54.8791 10.602 55.2665 11.008 55.5558 11.54C55.8545 12.0627 56.0038 12.6973 56.0038 13.444V13.654C56.0038 14.4007 55.8591 15.04 55.5698 15.572C55.2805 16.0947 54.8931 16.496 54.4078 16.776C53.9225 17.056 53.3905 17.196 52.8118 17.196C52.3638 17.196 51.9858 17.14 51.6778 17.028C51.3698 16.916 51.1225 16.776 50.9358 16.608C50.7491 16.4307 50.5998 16.2487 50.4878 16.062H50.2638V19.8H48.8218ZM52.3918 15.936C53.0265 15.936 53.5445 15.7353 53.9458 15.334C54.3471 14.9327 54.5478 14.3587 54.5478 13.612V13.486C54.5478 12.7487 54.3425 12.1793 53.9318 11.778C53.5305 11.3767 53.0171 11.176 52.3918 11.176C51.7758 11.176 51.2625 11.3767 50.8518 11.778C50.4505 12.1793 50.2498 12.7487 50.2498 13.486V13.612C50.2498 14.3587 50.4505 14.9327 50.8518 15.334C51.2625 15.7353 51.7758 15.936 52.3918 15.936Z" fill="black"/>
</svg>
