<svg width="92" height="24" viewBox="0 0 92 24" fill="none" xmlns="http://www.w3.org/2000/svg">
<mask id="path-1-inside-1_486_1564" fill="white">
<path d="M0.5 0H91.5V24H0.5V0Z"/>
</mask>
<path d="M91.5 23H0.5V25H91.5V23Z" fill="#377DFF" mask="url(#path-1-inside-1_486_1564)"/>
<path d="M7.17188 9.4929C7.11884 9.02225 6.90009 8.65767 6.51562 8.39915C6.13116 8.13731 5.64725 8.00639 5.06392 8.00639C4.64631 8.00639 4.28504 8.07268 3.98011 8.20526C3.67519 8.33452 3.43821 8.51349 3.26918 8.74219C3.10346 8.96757 3.0206 9.22443 3.0206 9.51278C3.0206 9.75473 3.07694 9.96354 3.18963 10.1392C3.30563 10.3149 3.45644 10.4624 3.64205 10.5817C3.83097 10.6977 4.03314 10.7955 4.24858 10.875C4.46402 10.9512 4.67116 11.0142 4.87003 11.0639L5.86435 11.3224C6.18916 11.402 6.52225 11.5097 6.86364 11.6456C7.20502 11.7815 7.52154 11.9605 7.81321 12.1825C8.10488 12.4046 8.3402 12.6797 8.51918 13.0078C8.70147 13.3359 8.79261 13.7287 8.79261 14.1861C8.79261 14.7628 8.64347 15.2749 8.34517 15.7223C8.05019 16.1697 7.62098 16.5227 7.05753 16.7812C6.4974 17.0398 5.8196 17.169 5.02415 17.169C4.26184 17.169 3.60227 17.0481 3.04545 16.8061C2.48864 16.5642 2.05279 16.2211 1.73793 15.777C1.42306 15.3295 1.24905 14.7992 1.21591 14.1861H2.7571C2.78693 14.554 2.90625 14.8606 3.11506 15.1058C3.32718 15.3478 3.5973 15.5284 3.92543 15.6477C4.25687 15.7637 4.61979 15.8217 5.0142 15.8217C5.44839 15.8217 5.83452 15.7538 6.17259 15.6179C6.51397 15.4787 6.78243 15.2865 6.97798 15.0412C7.17353 14.7926 7.27131 14.5026 7.27131 14.1712C7.27131 13.8696 7.18513 13.6226 7.01278 13.4304C6.84375 13.2382 6.6134 13.0791 6.32173 12.9531C6.03338 12.8272 5.70691 12.7161 5.34233 12.62L4.1392 12.2919C3.32386 12.0698 2.67756 11.7434 2.20028 11.3125C1.72633 10.8816 1.48935 10.3116 1.48935 9.60227C1.48935 9.01562 1.64844 8.50355 1.96662 8.06605C2.2848 7.62855 2.71567 7.28883 3.25923 7.04688C3.80279 6.80161 4.41596 6.67898 5.09872 6.67898C5.78812 6.67898 6.39631 6.79995 6.9233 7.0419C7.4536 7.28385 7.87121 7.61695 8.17614 8.04119C8.48106 8.46212 8.64015 8.94602 8.65341 9.4929H7.17188ZM11.9956 12.4659V17H10.5091V6.81818H11.9757V10.6065H12.0701C12.2491 10.1955 12.5225 9.86908 12.8904 9.62713C13.2583 9.38518 13.7389 9.2642 14.3322 9.2642C14.8559 9.2642 15.3133 9.37192 15.7044 9.58736C16.0988 9.80279 16.4037 10.1243 16.6191 10.5518C16.8379 10.9761 16.9473 11.5064 16.9473 12.1428V17H15.4608V12.3217C15.4608 11.7616 15.3166 11.3274 15.0282 11.0192C14.7399 10.7076 14.3388 10.5518 13.8251 10.5518C13.4738 10.5518 13.1589 10.6264 12.8805 10.7756C12.6054 10.9247 12.3883 11.1435 12.2292 11.4318C12.0734 11.7169 11.9956 12.0616 11.9956 12.4659ZM22.1475 17.1541C21.4316 17.1541 20.8069 16.9901 20.2733 16.6619C19.7396 16.3338 19.3253 15.8748 19.0304 15.2848C18.7354 14.6948 18.5879 14.0054 18.5879 13.2166C18.5879 12.4245 18.7354 11.7318 19.0304 11.1385C19.3253 10.5452 19.7396 10.0845 20.2733 9.75639C20.8069 9.42827 21.4316 9.2642 22.1475 9.2642C22.8635 9.2642 23.4882 9.42827 24.0218 9.75639C24.5555 10.0845 24.9698 10.5452 25.2647 11.1385C25.5597 11.7318 25.7072 12.4245 25.7072 13.2166C25.7072 14.0054 25.5597 14.6948 25.2647 15.2848C24.9698 15.8748 24.5555 16.3338 24.0218 16.6619C23.4882 16.9901 22.8635 17.1541 22.1475 17.1541ZM22.1525 15.9062C22.6165 15.9062 23.001 15.7836 23.3059 15.5384C23.6109 15.2931 23.8362 14.9666 23.9821 14.5589C24.1312 14.1513 24.2058 13.7022 24.2058 13.2116C24.2058 12.7244 24.1312 12.277 23.9821 11.8693C23.8362 11.4583 23.6109 11.1286 23.3059 10.88C23.001 10.6314 22.6165 10.5071 22.1525 10.5071C21.6852 10.5071 21.2974 10.6314 20.9892 10.88C20.6842 11.1286 20.4572 11.4583 20.3081 11.8693C20.1622 12.277 20.0893 12.7244 20.0893 13.2116C20.0893 13.7022 20.1622 14.1513 20.3081 14.5589C20.4572 14.9666 20.6842 15.2931 20.9892 15.5384C21.2974 15.7836 21.6852 15.9062 22.1525 15.9062ZM27.3665 19.8636V9.36364H28.8182V10.6016H28.9425C29.0286 10.4425 29.1529 10.2585 29.3153 10.0497C29.4777 9.84091 29.7031 9.65862 29.9915 9.50284C30.2798 9.34375 30.661 9.2642 31.1349 9.2642C31.7514 9.2642 32.3016 9.41998 32.7855 9.73153C33.2694 10.0431 33.6489 10.4922 33.924 11.0788C34.2024 11.6655 34.3416 12.3714 34.3416 13.1967C34.3416 14.022 34.2041 14.7296 33.929 15.3196C33.6539 15.9062 33.276 16.3587 32.7955 16.6768C32.3149 16.9917 31.7663 17.1491 31.1499 17.1491C30.6858 17.1491 30.3063 17.0713 30.0114 16.9155C29.7197 16.7597 29.491 16.5774 29.3253 16.3686C29.1596 16.1598 29.032 15.9742 28.9425 15.8118H28.853V19.8636H27.3665ZM28.8232 13.1818C28.8232 13.7187 28.901 14.1894 29.0568 14.5938C29.2126 14.9981 29.438 15.3146 29.733 15.5433C30.0279 15.7687 30.3892 15.8814 30.8168 15.8814C31.2609 15.8814 31.6321 15.7637 31.9304 15.5284C32.2287 15.2898 32.4541 14.9666 32.6065 14.5589C32.7623 14.1513 32.8402 13.6922 32.8402 13.1818C32.8402 12.678 32.764 12.2256 32.6115 11.8246C32.4624 11.4235 32.237 11.107 31.9354 10.875C31.6371 10.643 31.2642 10.527 30.8168 10.527C30.3859 10.527 30.0213 10.638 29.723 10.8601C29.428 11.0821 29.2043 11.392 29.0518 11.7898C28.8994 12.1875 28.8232 12.6515 28.8232 13.1818ZM48.0495 6.81818V17H46.6376L41.4622 9.53267H41.3677V17H39.8315V6.81818H41.2534L46.4338 14.2955H46.5282V6.81818H48.0495ZM53.3878 17.1541C52.6719 17.1541 52.0471 16.9901 51.5135 16.6619C50.9799 16.3338 50.5656 15.8748 50.2706 15.2848C49.9756 14.6948 49.8281 14.0054 49.8281 13.2166C49.8281 12.4245 49.9756 11.7318 50.2706 11.1385C50.5656 10.5452 50.9799 10.0845 51.5135 9.75639C52.0471 9.42827 52.6719 9.2642 53.3878 9.2642C54.1037 9.2642 54.7285 9.42827 55.2621 9.75639C55.7957 10.0845 56.21 10.5452 56.505 11.1385C56.8 11.7318 56.9474 12.4245 56.9474 13.2166C56.9474 14.0054 56.8 14.6948 56.505 15.2848C56.21 15.8748 55.7957 16.3338 55.2621 16.6619C54.7285 16.9901 54.1037 17.1541 53.3878 17.1541ZM53.3928 15.9062C53.8568 15.9062 54.2412 15.7836 54.5462 15.5384C54.8511 15.2931 55.0765 14.9666 55.2223 14.5589C55.3714 14.1513 55.446 13.7022 55.446 13.2116C55.446 12.7244 55.3714 12.277 55.2223 11.8693C55.0765 11.4583 54.8511 11.1286 54.5462 10.88C54.2412 10.6314 53.8568 10.5071 53.3928 10.5071C52.9254 10.5071 52.5376 10.6314 52.2294 10.88C51.9245 11.1286 51.6974 11.4583 51.5483 11.8693C51.4025 12.277 51.3295 12.7244 51.3295 13.2116C51.3295 13.7022 51.4025 14.1513 51.5483 14.5589C51.6974 14.9666 51.9245 15.2931 52.2294 15.5384C52.5376 15.7836 52.9254 15.9062 53.3928 15.9062ZM60.0298 17L57.7827 9.36364H59.3189L60.8153 14.9716H60.8899L62.3913 9.36364H63.9276L65.419 14.9467H65.4936L66.9801 9.36364H68.5163L66.2741 17H64.7578L63.2067 11.4865H63.0923L61.5412 17H60.0298Z" fill="#377DFF"/>
<path d="M77.25 12H87.75" stroke="#377DFF" stroke-width="1.125" stroke-linecap="round" stroke-linejoin="round"/>
<path d="M83.25 16.5L87.75 12" stroke="#377DFF" stroke-width="1.125" stroke-linecap="round" stroke-linejoin="round"/>
<path d="M83.25 7.5L87.75 12" stroke="#377DFF" stroke-width="1.125" stroke-linecap="round" stroke-linejoin="round"/>
</svg>
