<svg width="17" height="16" viewBox="0 0 17 16" fill="none" xmlns="http://www.w3.org/2000/svg">
<path d="M14.512 9.89042L14.2666 10.5991L14.2666 10.5991L14.512 9.89042ZM14.512 6.10958L14.7574 6.81831L14.512 6.10958ZM2.48785 9.89042L2.73322 10.5991H2.73322L2.48785 9.89042ZM2.48785 6.10958L2.24248 6.81831H2.24248L2.48785 6.10958ZM11.0302 6.53033C11.3231 6.23744 11.3231 5.76256 11.0302 5.46967C10.7374 5.17678 10.2625 5.17678 9.96959 5.46967L11.0302 6.53033ZM5.96959 9.46967C5.6767 9.76256 5.6767 10.2374 5.96959 10.5303C6.26248 10.8232 6.73736 10.8232 7.03025 10.5303L5.96959 9.46967ZM4.49992 14V13.25C3.44137 13.25 2.58325 12.3919 2.58325 11.3333H1.83325H1.08325C1.08325 13.2203 2.61295 14.75 4.49992 14.75V14ZM15.1666 11.3333H14.4166C14.4166 12.3919 13.5585 13.25 12.4999 13.25V14V14.75C14.3869 14.75 15.9166 13.2203 15.9166 11.3333H15.1666ZM12.4999 2V2.75C13.5585 2.75 14.4166 3.60812 14.4166 4.66667H15.1666H15.9166C15.9166 2.77969 14.3869 1.25 12.4999 1.25V2ZM4.49992 2V1.25C2.61295 1.25 1.08325 2.77969 1.08325 4.66667H1.83325H2.58325C2.58325 3.60812 3.44137 2.75 4.49992 2.75V2ZM14.512 9.89042L14.7574 9.18169C14.267 9.01191 13.9166 8.54591 13.9166 8H13.1666H12.4166C12.4166 9.20473 13.1908 10.2267 14.2666 10.5991L14.512 9.89042ZM13.1666 8H13.9166C13.9166 7.45409 14.267 6.98809 14.7574 6.81831L14.512 6.10958L14.2666 5.40086C13.1908 5.77332 12.4166 6.79527 12.4166 8H13.1666ZM3.83325 8H3.08325C3.08325 8.54591 2.73286 9.01191 2.24247 9.18169L2.48785 9.89042L2.73322 10.5991C3.80902 10.2267 4.58325 9.20473 4.58325 8H3.83325ZM2.48785 6.10958L2.24248 6.81831C2.73286 6.98809 3.08325 7.45409 3.08325 8H3.83325H4.58325C4.58325 6.79527 3.80902 5.77332 2.73322 5.40086L2.48785 6.10958ZM15.1666 5.33333H15.9166V4.66667H15.1666H14.4166V5.33333H15.1666ZM15.1666 10.6667H14.4166V11.3333H15.1666H15.9166V10.6667H15.1666ZM1.83325 10.6667H1.08325V11.3333H1.83325H2.58325V10.6667H1.83325ZM1.83325 5.33333H2.58325V4.66667H1.83325H1.08325V5.33333H1.83325ZM12.4999 14V13.25H4.49992V14V14.75H12.4999V14ZM12.4999 2V1.25H4.49992V2V2.75H12.4999V2ZM2.48785 9.89042L2.24248 9.18169C1.73776 9.35643 1.08325 9.84831 1.08325 10.6667H1.83325H2.58325C2.58325 10.6809 2.57989 10.6932 2.57709 10.6998C2.57488 10.705 2.57571 10.7005 2.58656 10.6885C2.61136 10.661 2.66268 10.6236 2.73322 10.5991L2.48785 9.89042ZM14.512 6.10958L14.7574 6.81831C15.2621 6.64357 15.9166 6.15169 15.9166 5.33333H15.1666H14.4166C14.4166 5.31907 14.42 5.30681 14.4227 5.30022C14.425 5.29499 14.4241 5.29953 14.4133 5.31154C14.3885 5.33899 14.3372 5.37643 14.2666 5.40086L14.512 6.10958ZM2.48785 6.10958L2.73322 5.40086C2.66268 5.37643 2.61136 5.33899 2.58656 5.31154C2.57571 5.29953 2.57488 5.29499 2.57709 5.30022C2.57989 5.30681 2.58325 5.31907 2.58325 5.33333H1.83325H1.08325C1.08325 6.15169 1.73776 6.64357 2.24248 6.81831L2.48785 6.10958ZM14.512 9.89042L14.2666 10.5991C14.3372 10.6236 14.3885 10.661 14.4133 10.6885C14.4241 10.7005 14.425 10.705 14.4227 10.6998C14.42 10.6932 14.4166 10.6809 14.4166 10.6667H15.1666H15.9166C15.9166 9.84831 15.2621 9.35643 14.7574 9.18169L14.512 9.89042ZM7.16659 6H6.41659C6.41659 5.95398 6.4539 5.91667 6.49992 5.91667V6.66667V7.41667C7.28232 7.41667 7.91659 6.7824 7.91659 6H7.16659ZM6.49992 6.66667V5.91667C6.54594 5.91667 6.58325 5.95398 6.58325 6H5.83325H5.08325C5.08325 6.7824 5.71752 7.41667 6.49992 7.41667V6.66667ZM5.83325 6H6.58325C6.58325 6.04602 6.54594 6.08333 6.49992 6.08333V5.33333V4.58333C5.71752 4.58333 5.08325 5.2176 5.08325 6H5.83325ZM6.49992 5.33333V6.08333C6.4539 6.08333 6.41659 6.04602 6.41659 6H7.16659H7.91659C7.91659 5.2176 7.28232 4.58333 6.49992 4.58333V5.33333ZM11.1666 10H10.4166C10.4166 9.95398 10.4539 9.91667 10.4999 9.91667V10.6667V11.4167C11.2823 11.4167 11.9166 10.7824 11.9166 10H11.1666ZM10.4999 10.6667V9.91667C10.5459 9.91667 10.5833 9.95398 10.5833 10H9.83325H9.08325C9.08325 10.7824 9.71752 11.4167 10.4999 11.4167V10.6667ZM9.83325 10H10.5833C10.5833 10.046 10.5459 10.0833 10.4999 10.0833V9.33333V8.58333C9.71752 8.58333 9.08325 9.2176 9.08325 10H9.83325ZM10.4999 9.33333V10.0833C10.4539 10.0833 10.4166 10.046 10.4166 10H11.1666H11.9166C11.9166 9.2176 11.2823 8.58333 10.4999 8.58333V9.33333ZM10.4999 6L9.96959 5.46967L5.96959 9.46967L6.49992 10L7.03025 10.5303L11.0302 6.53033L10.4999 6Z" fill="#FEFEFE"/>
</svg>
